# xmcd
#
# Track frame offsets:
#	150
#	16959
#	36167
#	53682
#	76392
#	93421
#	107794
#	126849
#	143404
#	162246
#	179974
#	198872
#	218024
#	231496
#	249332
#
# Disc length: 3541 seconds
#
# Revision: 0
# Processed by: cddbd v1.5.1PL2 Copyright (c) Steve Scherf et al.
# Submitted via: audiograbber 1.83.01
#
DISCID=c90dd30f
DTITLE=Sound Choice Karaoke - SC8842
DYEAR=1900
DGENRE=Country
TTITLE0=Emerick Scotty and Keith, Toby - I Can't Take You Anywhere
TTITLE1=Wayne, Jimmy - I Love You This Much
TTITLE2=Howard, Rebecca Lynn - What A Shame
TTITLE3=Montgomery Gentry - Hell Yeah
TTITLE4=Strait, George - Cowboys Like Us
TTITLE5=Travis, Randy - Pray For The Fish
TTITLE6=Lonestar - Walking In Memphis
TTITLE7=Loveless, Patty - Lovin' You All Night (Radio)
TTITLE8=Wills, Mark - And The Crowd Goes Wild
TTITLE9=Ruttan, Deric - When You Come Around
TTITLE10=Turner, Josh - Long Black Train
TTITLE11=Cagle, Chris - Chicks Dig It
TTITLE12=Clark, Terri - I Wanna Do It All
TTITLE13=Hanson, Jennifer - Half A Heart Tattoo
TTITLE14=Drake, Dusty - Smaller Pieces
EXTD=
EXTT0=
EXTT1=
EXTT2=
EXTT3=
EXTT4=
EXTT5=
EXTT6=
EXTT7=
EXTT8=
EXTT9=
EXTT10=
EXTT11=
EXTT12=
EXTT13=
EXTT14=
PLAYORDER=
